<svg xmlns="http://www.w3.org/2000/svg" viewBox="0 0 600 400" preserveAspectRatio="xMidYMid slice">
<defs>
<linearGradient id="bg" x1="0" y1="0" x2="0" y2="1"><stop offset="0" stop-color="#060f26"/><stop offset="1" stop-color="#132c70"/></linearGradient>
<radialGradient id="gl"><stop offset="0" stop-color="#fff" stop-opacity=".9"/><stop offset="1" stop-color="#fff" stop-opacity="0"/></radialGradient>

</defs>
<rect width="600" height="400" fill="url(#bg)"/>
<circle cx="271.4" cy="67.2" r="0.9" fill="#fff" opacity="0.5436910083897175"/><circle cx="513.0" cy="22.8" r="1.2" fill="#fff" opacity="0.5592461035357696"/><circle cx="368.4" cy="22.3" r="0.9" fill="#fff" opacity="0.44721082070594154"/><circle cx="54.4" cy="97.2" r="1.2" fill="#fff" opacity="0.6623943088741766"/><circle cx="357.3" cy="47.5" r="0.9" fill="#fff" opacity="0.6750496467969963"/><circle cx="369.3" cy="18.9" r="0.6" fill="#fff" opacity="0.7906060564774857"/><circle cx="37.9" cy="4.3" r="0.6" fill="#fff" opacity="0.6397517552193528"/><circle cx="466.9" cy="39.2" r="1.2" fill="#fff" opacity="0.7975776335370458"/><circle cx="311.5" cy="76.8" r="0.9" fill="#fff" opacity="0.25298595190489437"/><circle cx="51.0" cy="78.6" r="0.9" fill="#fff" opacity="0.8984765303010048"/><circle cx="597.4" cy="100.8" r="1.2" fill="#fff" opacity="0.41509658288158613"/><circle cx="454.8" cy="61.5" r="0.6" fill="#fff" opacity="0.29564527471395186"/><circle cx="459.8" cy="48.0" r="0.9" fill="#fff" opacity="0.5012337956088575"/><circle cx="574.8" cy="101.7" r="0.6" fill="#fff" opacity="0.38877609101173516"/><circle cx="556.2" cy="6.3" r="0.9" fill="#fff" opacity="0.8872333117632899"/><circle cx="238.5" cy="8.8" r="1.2" fill="#fff" opacity="0.3790185869189505"/><circle cx="404.9" cy="40.4" r="0.9" fill="#fff" opacity="0.46618065655117613"/><circle cx="578.4" cy="91.0" r="0.6" fill="#fff" opacity="0.33748770475500944"/><circle cx="424.2" cy="1.3" r="0.9" fill="#fff" opacity="0.7680639826985831"/><circle cx="106.6" cy="67.1" r="0.9" fill="#fff" opacity="0.5807625358845656"/><circle cx="591.2" cy="92.3" r="0.9" fill="#fff" opacity="0.6684148304122586"/><circle cx="69.9" cy="50.5" r="0.6" fill="#fff" opacity="0.25030609052901515"/><circle cx="518.6" cy="117.0" r="1.2" fill="#fff" opacity="0.4476943474161432"/><circle cx="530.9" cy="25.3" r="0.9" fill="#fff" opacity="0.8972932182650639"/><circle cx="361.2" cy="69.2" r="0.6" fill="#fff" opacity="0.893046103381612"/><circle cx="127.9" cy="31.0" r="1.2" fill="#fff" opacity="0.4638210266060245"/><circle cx="177.8" cy="8.8" r="0.6" fill="#fff" opacity="0.3856766512898923"/><circle cx="382.0" cy="1.9" r="0.9" fill="#fff" opacity="0.49160763028559834"/><circle cx="271.9" cy="115.1" r="0.9" fill="#fff" opacity="0.7910334987451979"/><circle cx="81.4" cy="46.3" r="1.2" fill="#fff" opacity="0.3501879573019395"/><circle cx="420.0" cy="120.0" r="150" fill="#4e86ff" opacity="0.3" style="filter:blur(52px)"/><rect x="0.0" y="155.5" width="60.9" height="364.5" rx="0" fill="#081228" opacity="1"/><rect x="6.0" y="163.5" width="4.0" height="5.0" rx="0" fill="#cfe2ff" opacity="0.5043903662797931"/><rect x="27.0" y="163.5" width="4.0" height="5.0" rx="0" fill="#cfe2ff" opacity="0.9225747187697548"/><rect x="6.0" y="172.5" width="4.0" height="5.0" rx="0" fill="#cfe2ff" opacity="0.42128305943158045"/><rect x="20.0" y="172.5" width="4.0" height="5.0" rx="0" fill="#cfe2ff" opacity="0.7875187033071073"/><rect x="27.0" y="172.5" width="4.0" height="5.0" rx="0" fill="#cfe2ff" opacity="0.853044815716544"/><rect x="41.0" y="172.5" width="4.0" height="5.0" rx="0" fill="#cfe2ff" opacity="0.49648836822122255"/><rect x="6.0" y="181.5" width="4.0" height="5.0" rx="0" fill="#cfe2ff" opacity="0.5256179855288189"/><rect x="34.0" y="181.5" width="4.0" height="5.0" rx="0" fill="#cfe2ff" opacity="0.9045480981709163"/><rect x="41.0" y="181.5" width="4.0" height="5.0" rx="0" fill="#cfe2ff" opacity="0.4091161361935353"/><rect x="48.0" y="181.5" width="4.0" height="5.0" rx="0" fill="#cfe2ff" opacity="0.6451380359901876"/><rect x="6.0" y="190.5" width="4.0" height="5.0" rx="0" fill="#cfe2ff" opacity="0.49693957645504944"/><rect x="27.0" y="190.5" width="4.0" height="5.0" rx="0" fill="#cfe2ff" opacity="0.5991798361847145"/><rect x="20.0" y="199.5" width="4.0" height="5.0" rx="0" fill="#cfe2ff" opacity="0.41929429514686056"/><rect x="27.0" y="199.5" width="4.0" height="5.0" rx="0" fill="#cfe2ff" opacity="0.9006168488160493"/><rect x="48.0" y="199.5" width="4.0" height="5.0" rx="0" fill="#cfe2ff" opacity="0.749901486867357"/><rect x="20.0" y="208.5" width="4.0" height="5.0" rx="0" fill="#cfe2ff" opacity="0.9496466945099654"/><rect x="27.0" y="208.5" width="4.0" height="5.0" rx="0" fill="#cfe2ff" opacity="0.7003524474969263"/><rect x="13.0" y="235.5" width="4.0" height="5.0" rx="0" fill="#cfe2ff" opacity="0.751672371950516"/><rect x="27.0" y="244.5" width="4.0" height="5.0" rx="0" fill="#cfe2ff" opacity="0.8126155974938885"/><rect x="34.0" y="244.5" width="4.0" height="5.0" rx="0" fill="#cfe2ff" opacity="0.7307068955023045"/><rect x="48.0" y="244.5" width="4.0" height="5.0" rx="0" fill="#cfe2ff" opacity="0.7840840739167236"/><rect x="27.0" y="253.5" width="4.0" height="5.0" rx="0" fill="#cfe2ff" opacity="0.4062189627615604"/><rect x="34.0" y="253.5" width="4.0" height="5.0" rx="0" fill="#cfe2ff" opacity="0.7729753385220985"/><rect x="41.0" y="253.5" width="4.0" height="5.0" rx="0" fill="#cfe2ff" opacity="0.49328393425475214"/><rect x="41.0" y="262.5" width="4.0" height="5.0" rx="0" fill="#cfe2ff" opacity="0.636992405295689"/><rect x="34.0" y="271.5" width="4.0" height="5.0" rx="0" fill="#cfe2ff" opacity="0.474896979510814"/><rect x="27.0" y="280.5" width="4.0" height="5.0" rx="0" fill="#cfe2ff" opacity="0.49302090080124256"/><rect x="41.0" y="280.5" width="4.0" height="5.0" rx="0" fill="#cfe2ff" opacity="0.5177442074343032"/><rect x="20.0" y="289.5" width="4.0" height="5.0" rx="0" fill="#cfe2ff" opacity="0.8615151268470742"/><rect x="41.0" y="289.5" width="4.0" height="5.0" rx="0" fill="#cfe2ff" opacity="0.417317176632345"/><rect x="6.0" y="298.5" width="4.0" height="5.0" rx="0" fill="#cfe2ff" opacity="0.7897470109506598"/><rect x="20.0" y="298.5" width="4.0" height="5.0" rx="0" fill="#cfe2ff" opacity="0.8353324369357633"/><rect x="27.0" y="298.5" width="4.0" height="5.0" rx="0" fill="#cfe2ff" opacity="0.4747346373115031"/><rect x="41.0" y="298.5" width="4.0" height="5.0" rx="0" fill="#cfe2ff" opacity="0.8563176389524852"/><rect x="48.0" y="298.5" width="4.0" height="5.0" rx="0" fill="#cfe2ff" opacity="0.4774809892346414"/><rect x="6.0" y="307.5" width="4.0" height="5.0" rx="0" fill="#cfe2ff" opacity="0.7460491680608514"/><rect x="61.7" y="245.0" width="46.2" height="275.0" rx="0" fill="#081228" opacity="1"/><rect x="67.7" y="253.0" width="4.0" height="5.0" rx="0" fill="#cfe2ff" opacity="0.65970972697561"/><rect x="81.7" y="253.0" width="4.0" height="5.0" rx="0" fill="#cfe2ff" opacity="0.5497952150420928"/><rect x="74.7" y="271.0" width="4.0" height="5.0" rx="0" fill="#cfe2ff" opacity="0.9129321052950393"/><rect x="88.7" y="271.0" width="4.0" height="5.0" rx="0" fill="#cfe2ff" opacity="0.6494448848685785"/><rect x="88.7" y="289.0" width="4.0" height="5.0" rx="0" fill="#cfe2ff" opacity="0.7970646081595651"/><rect x="81.7" y="298.0" width="4.0" height="5.0" rx="0" fill="#cfe2ff" opacity="0.894991055239904"/><rect x="109.2" y="208.3" width="32.8" height="311.7" rx="0" fill="#081228" opacity="1"/><rect x="115.2" y="225.3" width="4.0" height="5.0" rx="0" fill="#cfe2ff" opacity="0.845027087831139"/><rect x="122.2" y="225.3" width="4.0" height="5.0" rx="0" fill="#cfe2ff" opacity="0.8399229267187964"/><rect x="129.2" y="225.3" width="4.0" height="5.0" rx="0" fill="#cfe2ff" opacity="0.5842523800404437"/><rect x="122.2" y="234.3" width="4.0" height="5.0" rx="0" fill="#cfe2ff" opacity="0.48177155442463715"/><rect x="115.2" y="261.3" width="4.0" height="5.0" rx="0" fill="#cfe2ff" opacity="0.52177779184045"/><rect x="129.2" y="261.3" width="4.0" height="5.0" rx="0" fill="#cfe2ff" opacity="0.8008637607756416"/><rect x="122.2" y="279.3" width="4.0" height="5.0" rx="0" fill="#cfe2ff" opacity="0.6096693390990161"/><rect x="122.2" y="288.3" width="4.0" height="5.0" rx="0" fill="#cfe2ff" opacity="0.8679241789701035"/><rect x="129.2" y="297.3" width="4.0" height="5.0" rx="0" fill="#cfe2ff" opacity="0.6947470230076784"/><rect x="129.2" y="306.3" width="4.0" height="5.0" rx="0" fill="#cfe2ff" opacity="0.9331726739121534"/><rect x="144.1" y="157.9" width="43.6" height="362.1" rx="0" fill="#081228" opacity="1"/><rect x="171.1" y="165.9" width="4.0" height="5.0" rx="0" fill="#cfe2ff" opacity="0.6962934922606808"/><rect x="164.1" y="174.9" width="4.0" height="5.0" rx="0" fill="#cfe2ff" opacity="0.6602388249424853"/><rect x="171.1" y="174.9" width="4.0" height="5.0" rx="0" fill="#cfe2ff" opacity="0.6385226748547859"/><rect x="164.1" y="183.9" width="4.0" height="5.0" rx="0" fill="#cfe2ff" opacity="0.5052984441127374"/><rect x="150.1" y="192.9" width="4.0" height="5.0" rx="0" fill="#cfe2ff" opacity="0.8286088637076628"/><rect x="157.1" y="192.9" width="4.0" height="5.0" rx="0" fill="#cfe2ff" opacity="0.5067586312855853"/><rect x="164.1" y="192.9" width="4.0" height="5.0" rx="0" fill="#cfe2ff" opacity="0.777868719445501"/><rect x="157.1" y="201.9" width="4.0" height="5.0" rx="0" fill="#cfe2ff" opacity="0.8019915626960261"/><rect x="164.1" y="201.9" width="4.0" height="5.0" rx="0" fill="#cfe2ff" opacity="0.6807579796235208"/><rect x="171.1" y="201.9" width="4.0" height="5.0" rx="0" fill="#cfe2ff" opacity="0.5087508662473571"/><rect x="178.1" y="210.9" width="4.0" height="5.0" rx="0" fill="#cfe2ff" opacity="0.5123464329176506"/><rect x="157.1" y="228.9" width="4.0" height="5.0" rx="0" fill="#cfe2ff" opacity="0.8074243656943454"/><rect x="178.1" y="228.9" width="4.0" height="5.0" rx="0" fill="#cfe2ff" opacity="0.5732436384249735"/><rect x="157.1" y="237.9" width="4.0" height="5.0" rx="0" fill="#cfe2ff" opacity="0.9490946040078853"/><rect x="171.1" y="237.9" width="4.0" height="5.0" rx="0" fill="#cfe2ff" opacity="0.5316411105759281"/><rect x="150.1" y="246.9" width="4.0" height="5.0" rx="0" fill="#cfe2ff" opacity="0.45335873171045243"/><rect x="178.1" y="246.9" width="4.0" height="5.0" rx="0" fill="#cfe2ff" opacity="0.6215283408417999"/><rect x="157.1" y="255.9" width="4.0" height="5.0" rx="0" fill="#cfe2ff" opacity="0.5105137352902072"/><rect x="150.1" y="264.9" width="4.0" height="5.0" rx="0" fill="#cfe2ff" opacity="0.6781245078821768"/><rect x="178.1" y="264.9" width="4.0" height="5.0" rx="0" fill="#cfe2ff" opacity="0.4388036710406875"/><rect x="150.1" y="273.9" width="4.0" height="5.0" rx="0" fill="#cfe2ff" opacity="0.4205897299133126"/><rect x="178.1" y="273.9" width="4.0" height="5.0" rx="0" fill="#cfe2ff" opacity="0.5014949617029789"/><rect x="150.1" y="282.9" width="4.0" height="5.0" rx="0" fill="#cfe2ff" opacity="0.8621178599962218"/><rect x="171.1" y="282.9" width="4.0" height="5.0" rx="0" fill="#cfe2ff" opacity="0.4340697949673805"/><rect x="164.1" y="300.9" width="4.0" height="5.0" rx="0" fill="#cfe2ff" opacity="0.7855665499156914"/><rect x="178.1" y="300.9" width="4.0" height="5.0" rx="0" fill="#cfe2ff" opacity="0.6496730398220008"/><rect x="164.1" y="309.9" width="4.0" height="5.0" rx="0" fill="#cfe2ff" opacity="0.49079216645763"/><rect x="178.1" y="309.9" width="4.0" height="5.0" rx="0" fill="#cfe2ff" opacity="0.8912517487753466"/><rect x="190.9" y="149.5" width="54.0" height="370.5" rx="0" fill="#081228" opacity="1"/><rect x="196.9" y="166.5" width="4.0" height="5.0" rx="0" fill="#cfe2ff" opacity="0.9012144656028651"/><rect x="196.9" y="184.5" width="4.0" height="5.0" rx="0" fill="#cfe2ff" opacity="0.58794526357896"/><rect x="210.9" y="184.5" width="4.0" height="5.0" rx="0" fill="#cfe2ff" opacity="0.5956004518629499"/><rect x="231.9" y="184.5" width="4.0" height="5.0" rx="0" fill="#cfe2ff" opacity="0.919571626028295"/><rect x="231.9" y="202.5" width="4.0" height="5.0" rx="0" fill="#cfe2ff" opacity="0.7384680301653711"/><rect x="203.9" y="211.5" width="4.0" height="5.0" rx="0" fill="#cfe2ff" opacity="0.6208556095333301"/><rect x="210.9" y="211.5" width="4.0" height="5.0" rx="0" fill="#cfe2ff" opacity="0.5074953515559828"/><rect x="224.9" y="211.5" width="4.0" height="5.0" rx="0" fill="#cfe2ff" opacity="0.5379881005855682"/><rect x="203.9" y="229.5" width="4.0" height="5.0" rx="0" fill="#cfe2ff" opacity="0.7286451210650509"/><rect x="217.9" y="229.5" width="4.0" height="5.0" rx="0" fill="#cfe2ff" opacity="0.911584607260166"/><rect x="224.9" y="229.5" width="4.0" height="5.0" rx="0" fill="#cfe2ff" opacity="0.6594688425476735"/><rect x="231.9" y="229.5" width="4.0" height="5.0" rx="0" fill="#cfe2ff" opacity="0.6725364956861326"/><rect x="203.9" y="238.5" width="4.0" height="5.0" rx="0" fill="#cfe2ff" opacity="0.9199003757684917"/><rect x="196.9" y="247.5" width="4.0" height="5.0" rx="0" fill="#cfe2ff" opacity="0.7603113502142257"/><rect x="210.9" y="247.5" width="4.0" height="5.0" rx="0" fill="#cfe2ff" opacity="0.7941309788172076"/><rect x="217.9" y="247.5" width="4.0" height="5.0" rx="0" fill="#cfe2ff" opacity="0.4077068580304711"/><rect x="224.9" y="247.5" width="4.0" height="5.0" rx="0" fill="#cfe2ff" opacity="0.423525706292286"/><rect x="231.9" y="247.5" width="4.0" height="5.0" rx="0" fill="#cfe2ff" opacity="0.8150544850258605"/><rect x="217.9" y="256.5" width="4.0" height="5.0" rx="0" fill="#cfe2ff" opacity="0.9438231959766623"/><rect x="231.9" y="256.5" width="4.0" height="5.0" rx="0" fill="#cfe2ff" opacity="0.8980529738443921"/><rect x="217.9" y="265.5" width="4.0" height="5.0" rx="0" fill="#cfe2ff" opacity="0.6878476925504216"/><rect x="224.9" y="274.5" width="4.0" height="5.0" rx="0" fill="#cfe2ff" opacity="0.7433363842177159"/><rect x="196.9" y="283.5" width="4.0" height="5.0" rx="0" fill="#cfe2ff" opacity="0.4286306373490646"/><rect x="210.9" y="283.5" width="4.0" height="5.0" rx="0" fill="#cfe2ff" opacity="0.6435752624785753"/><rect x="231.9" y="283.5" width="4.0" height="5.0" rx="0" fill="#cfe2ff" opacity="0.7202301589779814"/><rect x="196.9" y="301.5" width="4.0" height="5.0" rx="0" fill="#cfe2ff" opacity="0.4626277042673651"/><rect x="231.9" y="301.5" width="4.0" height="5.0" rx="0" fill="#cfe2ff" opacity="0.7767713621168697"/><rect x="224.9" y="310.5" width="4.0" height="5.0" rx="0" fill="#cfe2ff" opacity="0.5369285693480222"/><rect x="248.6" y="264.5" width="59.9" height="255.5" rx="0" fill="#081228" opacity="1"/><rect x="254.6" y="272.5" width="4.0" height="5.0" rx="0" fill="#cfe2ff" opacity="0.5490166969056084"/><rect x="275.6" y="272.5" width="4.0" height="5.0" rx="0" fill="#cfe2ff" opacity="0.6979064956535295"/><rect x="282.6" y="272.5" width="4.0" height="5.0" rx="0" fill="#cfe2ff" opacity="0.44754299373989925"/><rect x="275.6" y="281.5" width="4.0" height="5.0" rx="0" fill="#cfe2ff" opacity="0.5890352884078262"/><rect x="296.6" y="281.5" width="4.0" height="5.0" rx="0" fill="#cfe2ff" opacity="0.4658836878539641"/><rect x="275.6" y="290.5" width="4.0" height="5.0" rx="0" fill="#cfe2ff" opacity="0.6333981831448259"/><rect x="282.6" y="290.5" width="4.0" height="5.0" rx="0" fill="#cfe2ff" opacity="0.8454323346382141"/><rect x="254.6" y="308.5" width="4.0" height="5.0" rx="0" fill="#cfe2ff" opacity="0.8813480047753786"/><rect x="261.6" y="308.5" width="4.0" height="5.0" rx="0" fill="#cfe2ff" opacity="0.4456617853611234"/><rect x="289.6" y="308.5" width="4.0" height="5.0" rx="0" fill="#cfe2ff" opacity="0.8265267454468529"/><rect x="296.6" y="308.5" width="4.0" height="5.0" rx="0" fill="#cfe2ff" opacity="0.5172932017659856"/><rect x="311.1" y="227.5" width="32.8" height="292.5" rx="0" fill="#081228" opacity="1"/><rect x="331.1" y="235.5" width="4.0" height="5.0" rx="0" fill="#cfe2ff" opacity="0.478604969533637"/><rect x="317.1" y="253.5" width="4.0" height="5.0" rx="0" fill="#cfe2ff" opacity="0.7901011820326698"/><rect x="324.1" y="271.5" width="4.0" height="5.0" rx="0" fill="#cfe2ff" opacity="0.5746905838822378"/><rect x="331.1" y="280.5" width="4.0" height="5.0" rx="0" fill="#cfe2ff" opacity="0.5989318144000177"/><rect x="324.1" y="298.5" width="4.0" height="5.0" rx="0" fill="#cfe2ff" opacity="0.7100925788472301"/><rect x="344.6" y="146.7" width="55.8" height="373.3" rx="0" fill="#081228" opacity="1"/><rect x="350.6" y="154.7" width="4.0" height="5.0" rx="0" fill="#cfe2ff" opacity="0.41222654969753386"/><rect x="357.6" y="163.7" width="4.0" height="5.0" rx="0" fill="#cfe2ff" opacity="0.700748849794351"/><rect x="371.6" y="163.7" width="4.0" height="5.0" rx="0" fill="#cfe2ff" opacity="0.44491993189233786"/><rect x="350.6" y="172.7" width="4.0" height="5.0" rx="0" fill="#cfe2ff" opacity="0.7487704091477851"/><rect x="357.6" y="172.7" width="4.0" height="5.0" rx="0" fill="#cfe2ff" opacity="0.8101853459994386"/><rect x="371.6" y="172.7" width="4.0" height="5.0" rx="0" fill="#cfe2ff" opacity="0.521247415385804"/><rect x="350.6" y="217.7" width="4.0" height="5.0" rx="0" fill="#cfe2ff" opacity="0.8076777319553439"/><rect x="371.6" y="217.7" width="4.0" height="5.0" rx="0" fill="#cfe2ff" opacity="0.512400612340345"/><rect x="385.6" y="217.7" width="4.0" height="5.0" rx="0" fill="#cfe2ff" opacity="0.9333681515406655"/><rect x="350.6" y="226.7" width="4.0" height="5.0" rx="0" fill="#cfe2ff" opacity="0.5696445312494305"/><rect x="357.6" y="226.7" width="4.0" height="5.0" rx="0" fill="#cfe2ff" opacity="0.7563891752476499"/><rect x="371.6" y="226.7" width="4.0" height="5.0" rx="0" fill="#cfe2ff" opacity="0.43428948159682984"/><rect x="357.6" y="235.7" width="4.0" height="5.0" rx="0" fill="#cfe2ff" opacity="0.45977174832443424"/><rect x="364.6" y="235.7" width="4.0" height="5.0" rx="0" fill="#cfe2ff" opacity="0.5195503858744569"/><rect x="371.6" y="235.7" width="4.0" height="5.0" rx="0" fill="#cfe2ff" opacity="0.7944840539958467"/><rect x="385.6" y="235.7" width="4.0" height="5.0" rx="0" fill="#cfe2ff" opacity="0.501742870673437"/><rect x="350.6" y="244.7" width="4.0" height="5.0" rx="0" fill="#cfe2ff" opacity="0.4948823507940248"/><rect x="364.6" y="244.7" width="4.0" height="5.0" rx="0" fill="#cfe2ff" opacity="0.7015290157355217"/><rect x="385.6" y="244.7" width="4.0" height="5.0" rx="0" fill="#cfe2ff" opacity="0.8880804517972366"/><rect x="385.6" y="253.7" width="4.0" height="5.0" rx="0" fill="#cfe2ff" opacity="0.42733877464816755"/><rect x="385.6" y="262.7" width="4.0" height="5.0" rx="0" fill="#cfe2ff" opacity="0.9446351146836999"/><rect x="357.6" y="271.7" width="4.0" height="5.0" rx="0" fill="#cfe2ff" opacity="0.40598243460601563"/><rect x="357.6" y="280.7" width="4.0" height="5.0" rx="0" fill="#cfe2ff" opacity="0.48630058224918427"/><rect x="371.6" y="280.7" width="4.0" height="5.0" rx="0" fill="#cfe2ff" opacity="0.8780850689523256"/><rect x="357.6" y="289.7" width="4.0" height="5.0" rx="0" fill="#cfe2ff" opacity="0.6940170413189954"/><rect x="364.6" y="289.7" width="4.0" height="5.0" rx="0" fill="#cfe2ff" opacity="0.8237077496801661"/><rect x="371.6" y="289.7" width="4.0" height="5.0" rx="0" fill="#cfe2ff" opacity="0.8517799377733835"/><rect x="350.6" y="298.7" width="4.0" height="5.0" rx="0" fill="#cfe2ff" opacity="0.5484563994271663"/><rect x="364.6" y="298.7" width="4.0" height="5.0" rx="0" fill="#cfe2ff" opacity="0.6640561616534779"/><rect x="357.6" y="307.7" width="4.0" height="5.0" rx="0" fill="#cfe2ff" opacity="0.8341269102191138"/><rect x="378.6" y="307.7" width="4.0" height="5.0" rx="0" fill="#cfe2ff" opacity="0.854479374305195"/><rect x="385.6" y="307.7" width="4.0" height="5.0" rx="0" fill="#cfe2ff" opacity="0.6988542439582365"/><rect x="402.5" y="153.5" width="35.4" height="366.5" rx="0" fill="#081228" opacity="1"/><rect x="408.5" y="161.5" width="4.0" height="5.0" rx="0" fill="#cfe2ff" opacity="0.5709106741324348"/><rect x="415.5" y="161.5" width="4.0" height="5.0" rx="0" fill="#cfe2ff" opacity="0.5681357521451822"/><rect x="422.5" y="170.5" width="4.0" height="5.0" rx="0" fill="#cfe2ff" opacity="0.6168299739936163"/><rect x="429.5" y="179.5" width="4.0" height="5.0" rx="0" fill="#cfe2ff" opacity="0.607419713150469"/><rect x="415.5" y="188.5" width="4.0" height="5.0" rx="0" fill="#cfe2ff" opacity="0.7102637478137657"/><rect x="429.5" y="188.5" width="4.0" height="5.0" rx="0" fill="#cfe2ff" opacity="0.9453933169281418"/><rect x="415.5" y="197.5" width="4.0" height="5.0" rx="0" fill="#cfe2ff" opacity="0.7388367234444068"/><rect x="422.5" y="197.5" width="4.0" height="5.0" rx="0" fill="#cfe2ff" opacity="0.6067937926620043"/><rect x="408.5" y="206.5" width="4.0" height="5.0" rx="0" fill="#cfe2ff" opacity="0.58556430127626"/><rect x="429.5" y="206.5" width="4.0" height="5.0" rx="0" fill="#cfe2ff" opacity="0.5099695686780094"/><rect x="429.5" y="224.5" width="4.0" height="5.0" rx="0" fill="#cfe2ff" opacity="0.47745235705335687"/><rect x="408.5" y="233.5" width="4.0" height="5.0" rx="0" fill="#cfe2ff" opacity="0.7727324567490506"/><rect x="422.5" y="233.5" width="4.0" height="5.0" rx="0" fill="#cfe2ff" opacity="0.6212534607951494"/><rect x="415.5" y="242.5" width="4.0" height="5.0" rx="0" fill="#cfe2ff" opacity="0.5246206359401125"/><rect x="422.5" y="242.5" width="4.0" height="5.0" rx="0" fill="#cfe2ff" opacity="0.4682594928040961"/><rect x="408.5" y="251.5" width="4.0" height="5.0" rx="0" fill="#cfe2ff" opacity="0.9063385334073863"/><rect x="415.5" y="269.5" width="4.0" height="5.0" rx="0" fill="#cfe2ff" opacity="0.6203894543439319"/><rect x="429.5" y="278.5" width="4.0" height="5.0" rx="0" fill="#cfe2ff" opacity="0.582058495684102"/><rect x="422.5" y="287.5" width="4.0" height="5.0" rx="0" fill="#cfe2ff" opacity="0.6076868151328381"/><rect x="429.5" y="296.5" width="4.0" height="5.0" rx="0" fill="#cfe2ff" opacity="0.8215819868919325"/><rect x="438.4" y="131.9" width="54.3" height="388.1" rx="0" fill="#081228" opacity="1"/><rect x="465.4" y="139.9" width="4.0" height="5.0" rx="0" fill="#cfe2ff" opacity="0.9196897500357744"/><rect x="479.4" y="139.9" width="4.0" height="5.0" rx="0" fill="#cfe2ff" opacity="0.4457810798656308"/><rect x="444.4" y="148.9" width="4.0" height="5.0" rx="0" fill="#cfe2ff" opacity="0.7170676535339859"/><rect x="444.4" y="157.9" width="4.0" height="5.0" rx="0" fill="#cfe2ff" opacity="0.9354680784149466"/><rect x="451.4" y="157.9" width="4.0" height="5.0" rx="0" fill="#cfe2ff" opacity="0.8972315304959443"/><rect x="479.4" y="157.9" width="4.0" height="5.0" rx="0" fill="#cfe2ff" opacity="0.9001320333044699"/><rect x="465.4" y="166.9" width="4.0" height="5.0" rx="0" fill="#cfe2ff" opacity="0.8535585638291343"/><rect x="472.4" y="166.9" width="4.0" height="5.0" rx="0" fill="#cfe2ff" opacity="0.8933544967323439"/><rect x="479.4" y="166.9" width="4.0" height="5.0" rx="0" fill="#cfe2ff" opacity="0.7154714174546655"/><rect x="451.4" y="175.9" width="4.0" height="5.0" rx="0" fill="#cfe2ff" opacity="0.701321190194698"/><rect x="458.4" y="175.9" width="4.0" height="5.0" rx="0" fill="#cfe2ff" opacity="0.4176114948232818"/><rect x="465.4" y="175.9" width="4.0" height="5.0" rx="0" fill="#cfe2ff" opacity="0.9428533659237671"/><rect x="444.4" y="184.9" width="4.0" height="5.0" rx="0" fill="#cfe2ff" opacity="0.7691790213141481"/><rect x="479.4" y="184.9" width="4.0" height="5.0" rx="0" fill="#cfe2ff" opacity="0.5097440289452909"/><rect x="451.4" y="193.9" width="4.0" height="5.0" rx="0" fill="#cfe2ff" opacity="0.6125077721852955"/><rect x="465.4" y="193.9" width="4.0" height="5.0" rx="0" fill="#cfe2ff" opacity="0.6858738550715927"/><rect x="472.4" y="193.9" width="4.0" height="5.0" rx="0" fill="#cfe2ff" opacity="0.7124188312324795"/><rect x="451.4" y="202.9" width="4.0" height="5.0" rx="0" fill="#cfe2ff" opacity="0.7690470262104989"/><rect x="458.4" y="202.9" width="4.0" height="5.0" rx="0" fill="#cfe2ff" opacity="0.9276316331599187"/><rect x="479.4" y="229.9" width="4.0" height="5.0" rx="0" fill="#cfe2ff" opacity="0.7990705839463694"/><rect x="472.4" y="238.9" width="4.0" height="5.0" rx="0" fill="#cfe2ff" opacity="0.7263905631928198"/><rect x="479.4" y="238.9" width="4.0" height="5.0" rx="0" fill="#cfe2ff" opacity="0.46844454381175415"/><rect x="465.4" y="247.9" width="4.0" height="5.0" rx="0" fill="#cfe2ff" opacity="0.782197556703949"/><rect x="479.4" y="247.9" width="4.0" height="5.0" rx="0" fill="#cfe2ff" opacity="0.5684643507843034"/><rect x="451.4" y="256.9" width="4.0" height="5.0" rx="0" fill="#cfe2ff" opacity="0.43764181434811816"/><rect x="458.4" y="265.9" width="4.0" height="5.0" rx="0" fill="#cfe2ff" opacity="0.8106424971063761"/><rect x="479.4" y="265.9" width="4.0" height="5.0" rx="0" fill="#cfe2ff" opacity="0.8357965869566517"/><rect x="444.4" y="274.9" width="4.0" height="5.0" rx="0" fill="#cfe2ff" opacity="0.6956744843478346"/><rect x="458.4" y="274.9" width="4.0" height="5.0" rx="0" fill="#cfe2ff" opacity="0.5341618292070855"/><rect x="465.4" y="274.9" width="4.0" height="5.0" rx="0" fill="#cfe2ff" opacity="0.5786203637317349"/><rect x="472.4" y="274.9" width="4.0" height="5.0" rx="0" fill="#cfe2ff" opacity="0.89231897404433"/><rect x="465.4" y="283.9" width="4.0" height="5.0" rx="0" fill="#cfe2ff" opacity="0.41712242849306075"/><rect x="479.4" y="283.9" width="4.0" height="5.0" rx="0" fill="#cfe2ff" opacity="0.6741298737285637"/><rect x="465.4" y="292.9" width="4.0" height="5.0" rx="0" fill="#cfe2ff" opacity="0.5624415939484059"/><rect x="444.4" y="301.9" width="4.0" height="5.0" rx="0" fill="#cfe2ff" opacity="0.8608544969748511"/><rect x="465.4" y="301.9" width="4.0" height="5.0" rx="0" fill="#cfe2ff" opacity="0.8838446560044317"/><rect x="479.4" y="301.9" width="4.0" height="5.0" rx="0" fill="#cfe2ff" opacity="0.7478168079996064"/><rect x="444.4" y="310.9" width="4.0" height="5.0" rx="0" fill="#cfe2ff" opacity="0.8840932226698761"/><rect x="451.4" y="310.9" width="4.0" height="5.0" rx="0" fill="#cfe2ff" opacity="0.4583554809417113"/><rect x="465.4" y="310.9" width="4.0" height="5.0" rx="0" fill="#cfe2ff" opacity="0.8951684698510218"/><rect x="493.2" y="138.7" width="53.7" height="381.3" rx="0" fill="#081228" opacity="1"/><rect x="506.2" y="146.7" width="4.0" height="5.0" rx="0" fill="#cfe2ff" opacity="0.5227804398078014"/><rect x="513.2" y="146.7" width="4.0" height="5.0" rx="0" fill="#cfe2ff" opacity="0.7907947553704033"/><rect x="520.2" y="146.7" width="4.0" height="5.0" rx="0" fill="#cfe2ff" opacity="0.49955878143071686"/><rect x="527.2" y="146.7" width="4.0" height="5.0" rx="0" fill="#cfe2ff" opacity="0.7655253541656151"/><rect x="527.2" y="155.7" width="4.0" height="5.0" rx="0" fill="#cfe2ff" opacity="0.5655137333461292"/><rect x="506.2" y="164.7" width="4.0" height="5.0" rx="0" fill="#cfe2ff" opacity="0.7519616064972461"/><rect x="513.2" y="164.7" width="4.0" height="5.0" rx="0" fill="#cfe2ff" opacity="0.9406653891648362"/><rect x="499.2" y="173.7" width="4.0" height="5.0" rx="0" fill="#cfe2ff" opacity="0.7298348201260636"/><rect x="506.2" y="173.7" width="4.0" height="5.0" rx="0" fill="#cfe2ff" opacity="0.5379967926658408"/><rect x="520.2" y="173.7" width="4.0" height="5.0" rx="0" fill="#cfe2ff" opacity="0.5568345441936731"/><rect x="534.2" y="173.7" width="4.0" height="5.0" rx="0" fill="#cfe2ff" opacity="0.5535061139896736"/><rect x="506.2" y="182.7" width="4.0" height="5.0" rx="0" fill="#cfe2ff" opacity="0.8933672851542012"/><rect x="520.2" y="182.7" width="4.0" height="5.0" rx="0" fill="#cfe2ff" opacity="0.6538977667989243"/><rect x="513.2" y="191.7" width="4.0" height="5.0" rx="0" fill="#cfe2ff" opacity="0.7058029299767477"/><rect x="506.2" y="209.7" width="4.0" height="5.0" rx="0" fill="#cfe2ff" opacity="0.8288098117275423"/><rect x="513.2" y="209.7" width="4.0" height="5.0" rx="0" fill="#cfe2ff" opacity="0.7344434811887359"/><rect x="520.2" y="209.7" width="4.0" height="5.0" rx="0" fill="#cfe2ff" opacity="0.6422383014209746"/><rect x="506.2" y="218.7" width="4.0" height="5.0" rx="0" fill="#cfe2ff" opacity="0.6690147601014929"/><rect x="513.2" y="218.7" width="4.0" height="5.0" rx="0" fill="#cfe2ff" opacity="0.7190498268739525"/><rect x="527.2" y="218.7" width="4.0" height="5.0" rx="0" fill="#cfe2ff" opacity="0.7282555262286083"/><rect x="513.2" y="227.7" width="4.0" height="5.0" rx="0" fill="#cfe2ff" opacity="0.48349585782412763"/><rect x="520.2" y="227.7" width="4.0" height="5.0" rx="0" fill="#cfe2ff" opacity="0.6728574707612073"/><rect x="499.2" y="236.7" width="4.0" height="5.0" rx="0" fill="#cfe2ff" opacity="0.8391856470481499"/><rect x="506.2" y="236.7" width="4.0" height="5.0" rx="0" fill="#cfe2ff" opacity="0.8990183912069982"/><rect x="534.2" y="236.7" width="4.0" height="5.0" rx="0" fill="#cfe2ff" opacity="0.48042722403771043"/><rect x="499.2" y="245.7" width="4.0" height="5.0" rx="0" fill="#cfe2ff" opacity="0.42327524783168585"/><rect x="506.2" y="245.7" width="4.0" height="5.0" rx="0" fill="#cfe2ff" opacity="0.7416588489424905"/><rect x="520.2" y="245.7" width="4.0" height="5.0" rx="0" fill="#cfe2ff" opacity="0.7237821193344125"/><rect x="527.2" y="245.7" width="4.0" height="5.0" rx="0" fill="#cfe2ff" opacity="0.8513099285275211"/><rect x="534.2" y="245.7" width="4.0" height="5.0" rx="0" fill="#cfe2ff" opacity="0.5401593177503118"/><rect x="499.2" y="254.7" width="4.0" height="5.0" rx="0" fill="#cfe2ff" opacity="0.7798668217841829"/><rect x="520.2" y="254.7" width="4.0" height="5.0" rx="0" fill="#cfe2ff" opacity="0.6258463886139148"/><rect x="534.2" y="254.7" width="4.0" height="5.0" rx="0" fill="#cfe2ff" opacity="0.9337948782478606"/><rect x="499.2" y="263.7" width="4.0" height="5.0" rx="0" fill="#cfe2ff" opacity="0.6692459845205629"/><rect x="520.2" y="263.7" width="4.0" height="5.0" rx="0" fill="#cfe2ff" opacity="0.6504261213312095"/><rect x="534.2" y="263.7" width="4.0" height="5.0" rx="0" fill="#cfe2ff" opacity="0.5323407078193197"/><rect x="506.2" y="272.7" width="4.0" height="5.0" rx="0" fill="#cfe2ff" opacity="0.6161062576312566"/><rect x="513.2" y="272.7" width="4.0" height="5.0" rx="0" fill="#cfe2ff" opacity="0.6334414404970509"/><rect x="520.2" y="272.7" width="4.0" height="5.0" rx="0" fill="#cfe2ff" opacity="0.4188473327004887"/><rect x="506.2" y="281.7" width="4.0" height="5.0" rx="0" fill="#cfe2ff" opacity="0.5392649435651647"/><rect x="520.2" y="281.7" width="4.0" height="5.0" rx="0" fill="#cfe2ff" opacity="0.6538569655068902"/><rect x="520.2" y="290.7" width="4.0" height="5.0" rx="0" fill="#cfe2ff" opacity="0.6216777266701741"/><rect x="534.2" y="290.7" width="4.0" height="5.0" rx="0" fill="#cfe2ff" opacity="0.5887611282026168"/><rect x="520.2" y="308.7" width="4.0" height="5.0" rx="0" fill="#cfe2ff" opacity="0.5910766406772229"/><rect x="527.2" y="308.7" width="4.0" height="5.0" rx="0" fill="#cfe2ff" opacity="0.7022526490858477"/><rect x="534.2" y="308.7" width="4.0" height="5.0" rx="0" fill="#cfe2ff" opacity="0.5120044188210511"/><rect x="547.7" y="226.8" width="45.9" height="293.2" rx="0" fill="#081228" opacity="1"/><rect x="581.7" y="234.8" width="4.0" height="5.0" rx="0" fill="#cfe2ff" opacity="0.6106283782463373"/><rect x="553.7" y="243.8" width="4.0" height="5.0" rx="0" fill="#cfe2ff" opacity="0.7802453152989768"/><rect x="567.7" y="243.8" width="4.0" height="5.0" rx="0" fill="#cfe2ff" opacity="0.41021104257849295"/><rect x="574.7" y="243.8" width="4.0" height="5.0" rx="0" fill="#cfe2ff" opacity="0.544285007429656"/><rect x="567.7" y="252.8" width="4.0" height="5.0" rx="0" fill="#cfe2ff" opacity="0.5986037070414834"/><rect x="574.7" y="252.8" width="4.0" height="5.0" rx="0" fill="#cfe2ff" opacity="0.9151472343301464"/><rect x="574.7" y="261.8" width="4.0" height="5.0" rx="0" fill="#cfe2ff" opacity="0.5771457333963451"/><rect x="553.7" y="270.8" width="4.0" height="5.0" rx="0" fill="#cfe2ff" opacity="0.885312596036157"/><rect x="581.7" y="270.8" width="4.0" height="5.0" rx="0" fill="#cfe2ff" opacity="0.6166848535415104"/><rect x="553.7" y="279.8" width="4.0" height="5.0" rx="0" fill="#cfe2ff" opacity="0.42245296093262874"/><rect x="560.7" y="279.8" width="4.0" height="5.0" rx="0" fill="#cfe2ff" opacity="0.7274655369684229"/><rect x="567.7" y="279.8" width="4.0" height="5.0" rx="0" fill="#cfe2ff" opacity="0.5717540094694189"/><rect x="553.7" y="288.8" width="4.0" height="5.0" rx="0" fill="#cfe2ff" opacity="0.7886336140444892"/><rect x="560.7" y="288.8" width="4.0" height="5.0" rx="0" fill="#cfe2ff" opacity="0.799014193180434"/><rect x="574.7" y="288.8" width="4.0" height="5.0" rx="0" fill="#cfe2ff" opacity="0.5126432009714046"/><rect x="581.7" y="288.8" width="4.0" height="5.0" rx="0" fill="#cfe2ff" opacity="0.7920219488229923"/><rect x="574.7" y="297.8" width="4.0" height="5.0" rx="0" fill="#cfe2ff" opacity="0.5606407724600652"/><rect x="553.7" y="306.8" width="4.0" height="5.0" rx="0" fill="#cfe2ff" opacity="0.42237977248814057"/><rect x="560.7" y="306.8" width="4.0" height="5.0" rx="0" fill="#cfe2ff" opacity="0.7467166838463527"/><rect x="594.8" y="141.3" width="52.8" height="378.7" rx="0" fill="#081228" opacity="1"/><rect x="600.8" y="149.3" width="4.0" height="5.0" rx="0" fill="#cfe2ff" opacity="0.7790660574611676"/><rect x="628.8" y="149.3" width="4.0" height="5.0" rx="0" fill="#cfe2ff" opacity="0.7478856555578905"/><rect x="635.8" y="149.3" width="4.0" height="5.0" rx="0" fill="#cfe2ff" opacity="0.635237314670499"/><rect x="607.8" y="158.3" width="4.0" height="5.0" rx="0" fill="#cfe2ff" opacity="0.6108458393206538"/><rect x="628.8" y="158.3" width="4.0" height="5.0" rx="0" fill="#cfe2ff" opacity="0.48722698918744695"/><rect x="607.8" y="167.3" width="4.0" height="5.0" rx="0" fill="#cfe2ff" opacity="0.7658624711764628"/><rect x="614.8" y="167.3" width="4.0" height="5.0" rx="0" fill="#cfe2ff" opacity="0.4511761729309455"/><rect x="635.8" y="167.3" width="4.0" height="5.0" rx="0" fill="#cfe2ff" opacity="0.72045070597047"/><rect x="621.8" y="176.3" width="4.0" height="5.0" rx="0" fill="#cfe2ff" opacity="0.6152543315007333"/><rect x="635.8" y="176.3" width="4.0" height="5.0" rx="0" fill="#cfe2ff" opacity="0.6223989620775104"/><rect x="600.8" y="185.3" width="4.0" height="5.0" rx="0" fill="#cfe2ff" opacity="0.672556076316071"/><rect x="628.8" y="185.3" width="4.0" height="5.0" rx="0" fill="#cfe2ff" opacity="0.41293943017306795"/><rect x="614.8" y="194.3" width="4.0" height="5.0" rx="0" fill="#cfe2ff" opacity="0.7674317236086861"/><rect x="621.8" y="194.3" width="4.0" height="5.0" rx="0" fill="#cfe2ff" opacity="0.658085506494543"/><rect x="614.8" y="212.3" width="4.0" height="5.0" rx="0" fill="#cfe2ff" opacity="0.8562827345369857"/><rect x="600.8" y="221.3" width="4.0" height="5.0" rx="0" fill="#cfe2ff" opacity="0.4747169563612649"/><rect x="614.8" y="221.3" width="4.0" height="5.0" rx="0" fill="#cfe2ff" opacity="0.5982193701727146"/><rect x="628.8" y="221.3" width="4.0" height="5.0" rx="0" fill="#cfe2ff" opacity="0.5058496616660313"/><rect x="635.8" y="221.3" width="4.0" height="5.0" rx="0" fill="#cfe2ff" opacity="0.7740960085468778"/><rect x="600.8" y="230.3" width="4.0" height="5.0" rx="0" fill="#cfe2ff" opacity="0.40051116577954754"/><rect x="621.8" y="230.3" width="4.0" height="5.0" rx="0" fill="#cfe2ff" opacity="0.6714864143500927"/><rect x="607.8" y="248.3" width="4.0" height="5.0" rx="0" fill="#cfe2ff" opacity="0.793769577625256"/><rect x="600.8" y="257.3" width="4.0" height="5.0" rx="0" fill="#cfe2ff" opacity="0.7418870685927044"/><rect x="628.8" y="257.3" width="4.0" height="5.0" rx="0" fill="#cfe2ff" opacity="0.8119314507947362"/><rect x="600.8" y="266.3" width="4.0" height="5.0" rx="0" fill="#cfe2ff" opacity="0.5371163554431624"/><rect x="614.8" y="266.3" width="4.0" height="5.0" rx="0" fill="#cfe2ff" opacity="0.6825591724785796"/><rect x="621.8" y="266.3" width="4.0" height="5.0" rx="0" fill="#cfe2ff" opacity="0.434780167743881"/><rect x="628.8" y="266.3" width="4.0" height="5.0" rx="0" fill="#cfe2ff" opacity="0.45622542453622855"/><rect x="600.8" y="275.3" width="4.0" height="5.0" rx="0" fill="#cfe2ff" opacity="0.6483693192287925"/><rect x="621.8" y="275.3" width="4.0" height="5.0" rx="0" fill="#cfe2ff" opacity="0.8764598271026347"/><rect x="635.8" y="275.3" width="4.0" height="5.0" rx="0" fill="#cfe2ff" opacity="0.5396426653009808"/><rect x="628.8" y="284.3" width="4.0" height="5.0" rx="0" fill="#cfe2ff" opacity="0.7936492594000804"/><rect x="628.8" y="302.3" width="4.0" height="5.0" rx="0" fill="#cfe2ff" opacity="0.6073229591671524"/><rect x="600.8" y="311.3" width="4.0" height="5.0" rx="0" fill="#cfe2ff" opacity="0.5015554244488277"/><rect x="607.8" y="311.3" width="4.0" height="5.0" rx="0" fill="#cfe2ff" opacity="0.7220396535963367"/><rect x="628.8" y="311.3" width="4.0" height="5.0" rx="0" fill="#cfe2ff" opacity="0.7781733840637484"/><path d="M60,250 Q105.0,120 150,190" fill="none" stroke="#7fb0ff" stroke-width="1.6" opacity=".85"/><path d="M60,250 Q105.0,120 150,190" fill="none" stroke="#fff" stroke-width=".6" opacity=".9"/><path d="M150,190 Q195.0,120 240,240" fill="none" stroke="#7fb0ff" stroke-width="1.6" opacity=".85"/><path d="M150,190 Q195.0,120 240,240" fill="none" stroke="#fff" stroke-width=".6" opacity=".9"/><path d="M240,240 Q285.0,80 330,150" fill="none" stroke="#7fb0ff" stroke-width="1.6" opacity=".85"/><path d="M240,240 Q285.0,80 330,150" fill="none" stroke="#fff" stroke-width=".6" opacity=".9"/><path d="M330,150 Q380.0,80 430,210" fill="none" stroke="#7fb0ff" stroke-width="1.6" opacity=".85"/><path d="M330,150 Q380.0,80 430,210" fill="none" stroke="#fff" stroke-width=".6" opacity=".9"/><path d="M430,210 Q475.0,70 520,140" fill="none" stroke="#7fb0ff" stroke-width="1.6" opacity=".85"/><path d="M430,210 Q475.0,70 520,140" fill="none" stroke="#fff" stroke-width=".6" opacity=".9"/><path d="M520,140 Q540.0,70 560,260" fill="none" stroke="#7fb0ff" stroke-width="1.6" opacity=".85"/><path d="M520,140 Q540.0,70 560,260" fill="none" stroke="#fff" stroke-width=".6" opacity=".9"/><path d="M60,250 Q300,10 560,260" fill="none" stroke="#e2231c" stroke-width="1.6" opacity=".7"/><circle cx="60.0" cy="250.0" r="9" fill="#9ec1ff" opacity="0.9" style="filter:blur(3px)"/><circle cx="60.0" cy="250.0" r="3.2" fill="#fff" opacity="1"/><circle cx="150.0" cy="190.0" r="9" fill="#9ec1ff" opacity="0.9" style="filter:blur(3px)"/><circle cx="150.0" cy="190.0" r="3.2" fill="#fff" opacity="1"/><circle cx="240.0" cy="240.0" r="9" fill="#9ec1ff" opacity="0.9" style="filter:blur(3px)"/><circle cx="240.0" cy="240.0" r="3.2" fill="#fff" opacity="1"/><circle cx="330.0" cy="150.0" r="9" fill="#9ec1ff" opacity="0.9" style="filter:blur(3px)"/><circle cx="330.0" cy="150.0" r="3.2" fill="#fff" opacity="1"/><circle cx="430.0" cy="210.0" r="9" fill="#9ec1ff" opacity="0.9" style="filter:blur(3px)"/><circle cx="430.0" cy="210.0" r="3.2" fill="#fff" opacity="1"/><circle cx="520.0" cy="140.0" r="9" fill="#9ec1ff" opacity="0.9" style="filter:blur(3px)"/><circle cx="520.0" cy="140.0" r="3.2" fill="#fff" opacity="1"/><circle cx="560.0" cy="260.0" r="9" fill="#9ec1ff" opacity="0.9" style="filter:blur(3px)"/><circle cx="560.0" cy="260.0" r="3.2" fill="#fff" opacity="1"/><rect x="0.0" y="320.0" width="600.0" height="90.0" rx="0" fill="#050c20" opacity="1"/><rect x="10.0" y="352.0" width="32.0" height="2.5" rx="0" fill="#7fb0ff" opacity="0.45"/><rect x="60.0" y="352.0" width="32.0" height="2.5" rx="0" fill="#7fb0ff" opacity="0.45"/><rect x="110.0" y="352.0" width="32.0" height="2.5" rx="0" fill="#7fb0ff" opacity="0.45"/><rect x="160.0" y="352.0" width="32.0" height="2.5" rx="0" fill="#7fb0ff" opacity="0.45"/><rect x="210.0" y="352.0" width="32.0" height="2.5" rx="0" fill="#7fb0ff" opacity="0.45"/><rect x="260.0" y="352.0" width="32.0" height="2.5" rx="0" fill="#7fb0ff" opacity="0.45"/><rect x="310.0" y="352.0" width="32.0" height="2.5" rx="0" fill="#7fb0ff" opacity="0.45"/><rect x="360.0" y="352.0" width="32.0" height="2.5" rx="0" fill="#7fb0ff" opacity="0.45"/><rect x="410.0" y="352.0" width="32.0" height="2.5" rx="0" fill="#7fb0ff" opacity="0.45"/><rect x="460.0" y="352.0" width="32.0" height="2.5" rx="0" fill="#7fb0ff" opacity="0.45"/><rect x="510.0" y="352.0" width="32.0" height="2.5" rx="0" fill="#7fb0ff" opacity="0.45"/><rect x="560.0" y="352.0" width="32.0" height="2.5" rx="0" fill="#7fb0ff" opacity="0.45"/><path d="M548,338 h26 v15.6 h-11.700000000000001 v10.4 h-14.3 z" fill="#e2231c" opacity=".9"/>

</svg>